<svg xmlns="http://www.w3.org/2000/svg" width="24" height="24" viewBox="0 0 24 24">
    <g fill="none" fill-rule="evenodd">
        <path d="M0 0h24v24H0z"/>
        <path stroke="#979797" d="M12 1.92c.326 0 .653.18.773.542l1.8 5.378a.81.81 0 0 0 .773.542h5.84c.785 0 1.114.963.481 1.41l-4.74 3.345a.763.763 0 0 0-.293.868l1.807 5.402c.184.547-.27 1.023-.776 1.023a.823.823 0 0 1-.478-.155l-4.706-3.322a.834.834 0 0 0-.962 0l-4.706 3.322a.823.823 0 0 1-.478.155c-.507 0-.96-.476-.776-1.023l1.807-5.402a.763.763 0 0 0-.293-.868L2.333 9.79c-.633-.446-.304-1.41.48-1.41h5.841a.81.81 0 0 0 .774-.54l1.799-5.38A.796.796 0 0 1 12 1.92z"/>
    </g>
</svg>
